<svg id="组_1" data-name="组 1" xmlns="http://www.w3.org/2000/svg" width="199.993" height="224.643" viewBox="0 0 430 483">
  <metadata><?xpacket begin="﻿" id="W5M0MpCehiHzreSzNTczkc9d"?>
<x:xmpmeta xmlns:x="adobe:ns:meta/" x:xmptk="Adobe XMP Core 5.6-c142 79.160924, 2017/07/13-01:06:39        ">
   <rdf:RDF xmlns:rdf="http://www.w3.org/1999/02/22-rdf-syntax-ns#">
      <rdf:Description rdf:about=""/>
   </rdf:RDF>
</x:xmpmeta>
                                                                                                    
                                                                                                    
                                                                                                    
                                                                                                    
                                                                                                    
                                                                                                    
                                                                                                    
                                                                                                    
                                                                                                    
                                                                                                    
                                                                                                    
                                                                                                    
                                                                                                    
                                                                                                    
                                                                                                    
                                                                                                    
                                                                                                    
                                                                                                    
                                                                                                    
                                                                                                    
                           
<?xpacket end="w"?></metadata>
<defs>
    <style>
      .cls-1 {
        fill: #24a1f3;
        fill-rule: evenodd;
      }
    </style>
  </defs>
  <path id="形状_1_拷贝" data-name="形状 1 拷贝" class="cls-1" d="M85.5,15H231.01V382.021l-24.987,27.894H475L388.281,498H70.8l67.612-79.277V69.319Z" transform="translate(-45 -15)"/>
  <path id="矩形_2" data-name="矩形 2" class="cls-1" d="M424.5,390.494H388.943a183.172,183.172,0,0,0,50.224-126.2c0-101.538-82.309-183.851-183.841-183.851-1.567,0-3.116.079-4.674,0.118v-26.8c1.678-.04,3.36-0.064,5.048-0.064,116.366,0,210.7,94.327,210.7,210.686A209.746,209.746,0,0,1,424.5,390.494ZM119.783,410.537l-7.2,8.426a210.616,210.616,0,0,1,7.2-315.555v36.7a183.8,183.8,0,0,0,0,248.365v22.064Z" transform="translate(-45 -15)"/>
</svg>
